<svg preserveAspectRatio="none" overflow="visible" style="display: block;" width="97.8062" height="97.8062" viewBox="0 0 97.8062 97.8062" fill="none" xmlns="http://www.w3.org/2000/svg">
<g id="Frame 219">
<rect width="97.8062" height="97.8062" rx="20" fill="#FF611B"/>
<g id="Vector">
<path d="M49 33C40.028 33 33 40.028 33 49C33 57.972 40.028 65 49 65C57.972 65 65 57.972 65 49C65 40.028 57.972 33 49 33ZM49 62.5C41.4299 62.5 35.5 56.5701 35.5 49C35.5 41.4299 41.4299 35.5 49 35.5C56.5701 35.5 62.5 41.4299 62.5 49C62.5 56.5701 56.5701 62.5 49 62.5Z" fill="#013150"/>
<path d="M58.74 43.3742C56.7375 39.9192 53.0449 37.75 49 37.75C42.7968 37.75 37.75 42.7968 37.75 49C37.75 49.6904 38.3096 50.25 39 50.25C39.6904 50.25 40.25 49.6904 40.25 49C40.25 44.1753 44.1753 40.25 49 40.25C51.6879 40.25 54.2226 41.5044 55.8711 43.5896L51.4344 46.1511C50.7787 45.59 49.9286 45.25 49 45.25C46.9323 45.25 45.25 46.9323 45.25 49C45.25 51.0677 46.9323 52.75 49 52.75C51.0677 52.75 52.75 51.0677 52.75 49C52.75 48.766 52.7274 48.5374 52.6862 48.3151L58.2835 45.0835C58.5709 44.9176 58.7806 44.6441 58.8662 44.3235C58.9518 44.0029 58.9064 43.6613 58.74 43.3742ZM49 50.25C48.3108 50.25 47.75 49.6892 47.75 49C47.75 48.3108 48.3108 47.75 49 47.75C49.6892 47.75 50.25 48.3108 50.25 49C50.25 49.6892 49.6892 50.25 49 50.25Z" fill="#013150"/>
<path d="M51.5 60.25H46.5C45.8096 60.25 45.25 59.6904 45.25 59C45.25 58.3096 45.8096 57.75 46.5 57.75H51.5C52.1904 57.75 52.75 58.3096 52.75 59C52.75 59.6904 52.1904 60.25 51.5 60.25Z" fill="#013150"/>
</g>
</g>
</svg>
